<?xml version="1.0" encoding="UTF-8" standalone="no"?>
<!DOCTYPE svg PUBLIC "-//W3C//DTD SVG 1.1//EN"
 "http://www.w3.org/Graphics/SVG/1.1/DTD/svg11.dtd">
<!-- Generated by graphviz version 2.47.0 (20210316.0004)
 -->
<!-- Title: dependencies Pages: 1 -->
<svg width="1421pt" height="284pt"
 viewBox="0.00 0.00 1421.00 284.00" xmlns="http://www.w3.org/2000/svg" xmlns:xlink="http://www.w3.org/1999/xlink">
<g id="graph0" class="graph" transform="scale(1 1) rotate(0) translate(4 280)">
<title>dependencies</title>
<polygon fill="white" stroke="transparent" points="-4,4 -4,-280 1417,-280 1417,4 -4,4"/>
<text text-anchor="start" x="685.51" y="-42.4" font-family="sans-serif" font-weight="bold" font-size="14.00">Legend</text>
<polygon fill="#ffffb3" stroke="transparent" points="472.5,-10 472.5,-30 492.5,-30 492.5,-10 472.5,-10"/>
<text text-anchor="start" x="496.13" y="-15.4" font-family="sans-serif" font-size="14.00"> &#160;Declarations</text>
<polygon fill="#8dd3c7" stroke="transparent" points="585.5,-10 585.5,-30 605.5,-30 605.5,-10 585.5,-10"/>
<text text-anchor="start" x="609.23" y="-15.4" font-family="sans-serif" font-size="14.00"> &#160;Module</text>
<polygon fill="#80b1d3" stroke="transparent" points="671.5,-10 671.5,-30 691.5,-30 691.5,-10 671.5,-10"/>
<text text-anchor="start" x="695.28" y="-15.4" font-family="sans-serif" font-size="14.00"> &#160;Bootstrap</text>
<polygon fill="#fdb462" stroke="transparent" points="768.5,-10 768.5,-30 788.5,-30 788.5,-10 768.5,-10"/>
<text text-anchor="start" x="792.17" y="-15.4" font-family="sans-serif" font-size="14.00"> &#160;Providers</text>
<polygon fill="#fb8072" stroke="transparent" points="864.5,-10 864.5,-30 884.5,-30 884.5,-10 864.5,-10"/>
<text text-anchor="start" x="888.23" y="-15.4" font-family="sans-serif" font-size="14.00"> &#160;Exports</text>
<g id="clust1" class="cluster">
<title>cluster_AppModule</title>
<polygon fill="none" stroke="black" stroke-dasharray="1,5" points="8,-70 8,-268 1405,-268 1405,-70 8,-70"/>
</g>
<g id="clust15" class="cluster">
<title>cluster_AppModule_providers</title>
<polygon fill="none" stroke="black" points="1245,-78 1245,-130 1397,-130 1397,-78 1245,-78"/>
</g>
<g id="clust2" class="cluster">
<title>cluster_AppModule_declarations</title>
<polygon fill="none" stroke="black" points="16,-78 16,-130 1237,-130 1237,-78 16,-78"/>
</g>
<g id="clust14" class="cluster">
<title>cluster_AppModule_bootstrap</title>
<polygon fill="none" stroke="black" points="656,-208 656,-260 780,-260 780,-208 656,-208"/>
</g>
<!-- AppComponent -->
<g id="node1" class="node">
<title>AppComponent</title>
<polygon fill="#ffffb3" stroke="black" points="1228.94,-122 1123.06,-122 1123.06,-86 1228.94,-86 1228.94,-122"/>
<text text-anchor="middle" x="1176" y="-99.8" font-family="Times,serif" font-size="14.00">AppComponent</text>
</g>
<!-- AppModule -->
<g id="node10" class="node">
<title>AppModule</title>
<polygon fill="#8dd3c7" stroke="black" points="759.66,-187 756.66,-191 735.66,-191 732.66,-187 676.34,-187 676.34,-151 759.66,-151 759.66,-187"/>
<text text-anchor="middle" x="718" y="-164.8" font-family="Times,serif" font-size="14.00">AppModule</text>
</g>
<!-- AppComponent&#45;&gt;AppModule -->
<g id="edge1" class="edge">
<title>AppComponent&#45;&gt;AppModule</title>
<path fill="none" stroke="black" d="M1176,-122.13C1176,-142.57 1176,-173 1176,-173 1176,-173 769.86,-173 769.86,-173"/>
<polygon fill="black" stroke="black" points="769.86,-169.5 759.86,-173 769.86,-176.5 769.86,-169.5"/>
</g>
<!-- FeedComponent -->
<g id="node2" class="node">
<title>FeedComponent</title>
<polygon fill="#ffffb3" stroke="black" points="1105.05,-122 996.95,-122 996.95,-86 1105.05,-86 1105.05,-122"/>
<text text-anchor="middle" x="1051" y="-99.8" font-family="Times,serif" font-size="14.00">FeedComponent</text>
</g>
<!-- FeedComponent&#45;&gt;AppModule -->
<g id="edge2" class="edge">
<title>FeedComponent&#45;&gt;AppModule</title>
<path fill="none" stroke="black" d="M1051,-122.27C1051,-140.56 1051,-166 1051,-166 1051,-166 769.84,-166 769.84,-166"/>
<polygon fill="black" stroke="black" points="769.84,-162.5 759.84,-166 769.84,-169.5 769.84,-162.5"/>
</g>
<!-- FriendComponent -->
<g id="node3" class="node">
<title>FriendComponent</title>
<polygon fill="#ffffb3" stroke="black" points="978.88,-122 861.12,-122 861.12,-86 978.88,-86 978.88,-122"/>
<text text-anchor="middle" x="920" y="-99.8" font-family="Times,serif" font-size="14.00">FriendComponent</text>
</g>
<!-- FriendComponent&#45;&gt;AppModule -->
<g id="edge3" class="edge">
<title>FriendComponent&#45;&gt;AppModule</title>
<path fill="none" stroke="black" d="M920,-122.01C920,-138.05 920,-159 920,-159 920,-159 769.85,-159 769.85,-159"/>
<polygon fill="black" stroke="black" points="769.85,-155.5 759.85,-159 769.85,-162.5 769.85,-155.5"/>
</g>
<!-- HomeComponent -->
<g id="node4" class="node">
<title>HomeComponent</title>
<polygon fill="#ffffb3" stroke="black" points="842.55,-122 727.45,-122 727.45,-86 842.55,-86 842.55,-122"/>
<text text-anchor="middle" x="785" y="-99.8" font-family="Times,serif" font-size="14.00">HomeComponent</text>
</g>
<!-- HomeComponent&#45;&gt;AppModule -->
<g id="edge4" class="edge">
<title>HomeComponent&#45;&gt;AppModule</title>
<path fill="none" stroke="black" d="M743.53,-122.11C743.53,-122.11 743.53,-140.99 743.53,-140.99"/>
<polygon fill="black" stroke="black" points="740.03,-140.99 743.53,-150.99 747.03,-140.99 740.03,-140.99"/>
</g>
<!-- LoginComponent -->
<g id="node5" class="node">
<title>LoginComponent</title>
<polygon fill="#ffffb3" stroke="black" points="709.28,-122 594.72,-122 594.72,-86 709.28,-86 709.28,-122"/>
<text text-anchor="middle" x="652" y="-99.8" font-family="Times,serif" font-size="14.00">LoginComponent</text>
</g>
<!-- LoginComponent&#45;&gt;AppModule -->
<g id="edge5" class="edge">
<title>LoginComponent&#45;&gt;AppModule</title>
<path fill="none" stroke="black" d="M692.78,-122.11C692.78,-122.11 692.78,-140.99 692.78,-140.99"/>
<polygon fill="black" stroke="black" points="689.28,-140.99 692.78,-150.99 696.28,-140.99 689.28,-140.99"/>
</g>
<!-- NavMenuComponent -->
<g id="node6" class="node">
<title>NavMenuComponent</title>
<polygon fill="#ffffb3" stroke="black" points="576.81,-122 439.19,-122 439.19,-86 576.81,-86 576.81,-122"/>
<text text-anchor="middle" x="508" y="-99.8" font-family="Times,serif" font-size="14.00">NavMenuComponent</text>
</g>
<!-- NavMenuComponent&#45;&gt;AppModule -->
<g id="edge6" class="edge">
<title>NavMenuComponent&#45;&gt;AppModule</title>
<path fill="none" stroke="black" d="M508,-122.01C508,-138.05 508,-159 508,-159 508,-159 666.26,-159 666.26,-159"/>
<polygon fill="black" stroke="black" points="666.26,-162.5 676.26,-159 666.26,-155.5 666.26,-162.5"/>
</g>
<!-- ProfileComponent -->
<g id="node7" class="node">
<title>ProfileComponent</title>
<polygon fill="#ffffb3" stroke="black" points="421.93,-122 302.07,-122 302.07,-86 421.93,-86 421.93,-122"/>
<text text-anchor="middle" x="362" y="-99.8" font-family="Times,serif" font-size="14.00">ProfileComponent</text>
</g>
<!-- ProfileComponent&#45;&gt;AppModule -->
<g id="edge7" class="edge">
<title>ProfileComponent&#45;&gt;AppModule</title>
<path fill="none" stroke="black" d="M362,-122.27C362,-140.56 362,-166 362,-166 362,-166 666.12,-166 666.12,-166"/>
<polygon fill="black" stroke="black" points="666.12,-169.5 676.12,-166 666.12,-162.5 666.12,-169.5"/>
</g>
<!-- RegisterComponent -->
<g id="node8" class="node">
<title>RegisterComponent</title>
<polygon fill="#ffffb3" stroke="black" points="283.98,-122 156.02,-122 156.02,-86 283.98,-86 283.98,-122"/>
<text text-anchor="middle" x="220" y="-99.8" font-family="Times,serif" font-size="14.00">RegisterComponent</text>
</g>
<!-- RegisterComponent&#45;&gt;AppModule -->
<g id="edge8" class="edge">
<title>RegisterComponent&#45;&gt;AppModule</title>
<path fill="none" stroke="black" d="M220,-122.13C220,-142.57 220,-173 220,-173 220,-173 665.97,-173 665.97,-173"/>
<polygon fill="black" stroke="black" points="665.97,-176.5 675.97,-173 665.97,-169.5 665.97,-176.5"/>
</g>
<!-- UsersComponent -->
<g id="node9" class="node">
<title>UsersComponent</title>
<polygon fill="#ffffb3" stroke="black" points="137.7,-122 24.3,-122 24.3,-86 137.7,-86 137.7,-122"/>
<text text-anchor="middle" x="81" y="-99.8" font-family="Times,serif" font-size="14.00">UsersComponent</text>
</g>
<!-- UsersComponent&#45;&gt;AppModule -->
<g id="edge9" class="edge">
<title>UsersComponent&#45;&gt;AppModule</title>
<path fill="none" stroke="black" d="M81,-122.01C81,-144.49 81,-180 81,-180 81,-180 666.2,-180 666.2,-180"/>
<polygon fill="black" stroke="black" points="666.2,-183.5 676.2,-180 666.2,-176.5 666.2,-183.5"/>
</g>
<!-- AppComponent  -->
<g id="node11" class="node">
<title>AppComponent </title>
<polygon fill="#80b1d3" stroke="black" points="772.44,-252 663.56,-252 663.56,-216 772.44,-216 772.44,-252"/>
<text text-anchor="middle" x="718" y="-229.8" font-family="Times,serif" font-size="14.00">AppComponent </text>
</g>
<!-- AppModule&#45;&gt;AppComponent  -->
<g id="edge10" class="edge">
<title>AppModule&#45;&gt;AppComponent </title>
<path fill="none" stroke="black" stroke-dasharray="1,5" d="M718,-187.11C718,-187.11 718,-205.99 718,-205.99"/>
<polygon fill="black" stroke="black" points="714.5,-205.99 718,-215.99 721.5,-205.99 714.5,-205.99"/>
</g>
<!-- BurritoService -->
<g id="node12" class="node">
<title>BurritoService</title>
<ellipse fill="#fdb462" stroke="black" cx="1321" cy="-104" rx="67.77" ry="18"/>
<text text-anchor="middle" x="1321" y="-99.8" font-family="Times,serif" font-size="14.00">BurritoService</text>
</g>
<!-- BurritoService&#45;&gt;AppModule -->
<g id="edge11" class="edge">
<title>BurritoService&#45;&gt;AppModule</title>
<path fill="none" stroke="black" d="M1321,-122.01C1321,-144.49 1321,-180 1321,-180 1321,-180 769.92,-180 769.92,-180"/>
<polygon fill="black" stroke="black" points="769.92,-176.5 759.92,-180 769.92,-183.5 769.92,-176.5"/>
</g>
</g>
</svg>
